<svg xmlns="http://www.w3.org/2000/svg" version="1.1" xmlns:xlink="http://www.w3.org/1999/xlink" width="512" height="512" x="0" y="0" viewBox="0 0 800 800" style="enable-background:new 0 0 512 512" xml:space="preserve" class=""><g><clipPath id="a"><path d="M54.843 198.671h690.314v402.658H54.843z" fill="#000000" opacity="1" data-original="#000000"></path></clipPath><path fill="#F32837" d="M54.843 570.36h690.314v30.969H54.843z" clip-path="url(#a)" opacity="1" data-original="#f32837"></path><path fill="#FFF5F5" d="M54.843 539.388h690.314v30.972H54.843z" clip-path="url(#a)" opacity="1" data-original="#fff5f5"></path><path fill="#F32837" d="M54.843 508.437h690.314v30.951H54.843z" clip-path="url(#a)" opacity="1" data-original="#f32837"></path><path fill="#FFF5F5" d="M54.843 477.468h690.314v30.969H54.843z" clip-path="url(#a)" opacity="1" data-original="#fff5f5"></path><path fill="#F32837" d="M54.843 446.476h690.314v30.992H54.843z" clip-path="url(#a)" opacity="1" data-original="#f32837"></path><path fill="#FFF5F5" d="M54.843 415.527h690.314v30.949H54.843z" clip-path="url(#a)" opacity="1" data-original="#fff5f5"></path><path fill="#F32837" d="M54.843 384.516h690.314v31.011H54.843z" clip-path="url(#a)" opacity="1" data-original="#f32837"></path><path fill="#FFF5F5" d="M54.843 353.565h690.314v30.951H54.843z" clip-path="url(#a)" opacity="1" data-original="#fff5f5"></path><path fill="#F32837" d="M54.843 322.594h690.314v30.972H54.843z" clip-path="url(#a)" opacity="1" data-original="#f32837"></path><path fill="#FFF5F5" d="M54.843 291.604h690.314v30.99H54.843z" clip-path="url(#a)" opacity="1" data-original="#fff5f5"></path><path fill="#F32837" d="M54.843 260.632h690.314v30.972H54.843z" clip-path="url(#a)" opacity="1" data-original="#f32837"></path><path fill="#FFF5F5" d="M54.843 229.663h690.314v30.969H54.843z" clip-path="url(#a)" opacity="1" data-original="#fff5f5"></path><path fill="#F32837" d="M54.843 198.671h690.314v30.992H54.843z" clip-path="url(#a)" opacity="1" data-original="#f32837"></path><path fill="#2A3560" d="M54.843 198.671h315.252v216.856H54.843z" clip-path="url(#a)" opacity="1" data-original="#2a3560" class=""></path><g fill="#FFF5F5"><path d="m83.324 222.571 2.692 8.215h8.636l-6.99 5.061 2.653 8.196-6.991-5.061-6.989 5.061 2.732-8.196-6.991-5.061h8.556zM83.324 258.785l2.692 8.174h8.636L87.662 272l2.653 8.234-6.991-5.079-6.989 5.079L79.067 272l-6.991-5.041h8.556zM83.324 294.977l2.692 8.175h8.636l-6.99 5.062 2.653 8.214-6.991-5.082-6.989 5.082 2.732-8.214-6.991-5.062h8.556zM83.324 331.15l2.692 8.214h8.636l-6.99 5.061 2.653 8.176-6.991-5.041-6.989 5.041 2.732-8.176-6.991-5.061h8.556zM83.324 367.343l2.692 8.235h8.636l-6.99 5.02 2.653 8.196-6.991-5.061-6.989 5.061 2.732-8.196-6.991-5.02h8.556zM108.551 241.633l2.571 8.214h8.675l-6.947 5.082 2.61 8.173-6.909-5.041-6.949 5.041 2.61-8.173-6.95-5.082h8.638zM108.551 277.845l2.571 8.175h8.675l-6.947 5.082 2.61 8.173-6.909-5.02-6.949 5.02 2.61-8.173-6.95-5.082h8.638zM108.551 314.038l2.571 8.194h8.675l-6.947 5.061 2.61 8.196-6.909-5.061-6.949 5.061 2.61-8.196-6.95-5.061h8.638zM108.551 350.25l2.571 8.175h8.675l-6.947 5.062 2.61 8.175-6.909-5.082-6.949 5.082 2.61-8.175-6.95-5.062h8.638zM134.019 222.571l2.69 8.215h8.636l-6.988 5.061 2.69 8.196-7.028-5.061-6.91 5.061 2.651-8.196-6.989-5.061h8.595zM134.019 258.785l2.69 8.174h8.636L138.357 272l2.69 8.234-7.028-5.079-6.91 5.079L129.76 272l-6.989-5.041h8.595zM134.019 294.977l2.69 8.175h8.636l-6.988 5.062 2.69 8.214-7.028-5.082-6.91 5.082 2.651-8.214-6.989-5.062h8.595zM134.019 331.15l2.69 8.214h8.636l-6.988 5.061 2.69 8.176-7.028-5.041-6.91 5.041 2.651-8.176-6.989-5.061h8.595zM134.019 367.343l2.69 8.235h8.636l-6.988 5.02 2.69 8.196-7.028-5.061-6.91 5.061 2.651-8.196-6.989-5.02h8.595zM159.244 241.633l2.651 8.214h8.677l-7.029 5.082 2.692 8.173-6.991-5.041-6.949 5.041 2.692-8.173-7.03-5.082h8.636zM159.244 277.845l2.651 8.175h8.677l-7.029 5.082 2.692 8.173-6.991-5.02-6.949 5.02 2.692-8.173-7.03-5.082h8.636zM159.244 314.038l2.651 8.194h8.677l-7.029 5.061 2.692 8.196-6.991-5.061-6.949 5.061 2.692-8.196-7.03-5.061h8.636zM159.244 350.25l2.651 8.175h8.677l-7.029 5.062 2.692 8.175-6.991-5.082-6.949 5.082 2.692-8.175-7.03-5.062h8.636zM184.792 222.571l2.692 8.215h8.556l-6.99 5.061 2.772 8.196-7.03-5.061-6.988 5.061 2.651-8.196-6.911-5.061h8.597zM184.792 258.785l2.692 8.174h8.556L189.05 272l2.772 8.234-7.03-5.079-6.988 5.079 2.651-8.234-6.911-5.041h8.597zM184.792 294.977l2.692 8.175h8.556l-6.99 5.062 2.772 8.214-7.03-5.082-6.988 5.082 2.651-8.214-6.911-5.062h8.597zM184.792 331.15l2.692 8.214h8.556l-6.99 5.061 2.772 8.176-7.03-5.041-6.988 5.041 2.651-8.176-6.911-5.061h8.597zM184.792 367.343l2.692 8.235h8.556l-6.99 5.02 2.772 8.196-7.03-5.061-6.988 5.061 2.651-8.196-6.911-5.02h8.597zM210.02 241.633l2.651 8.214h8.594l-6.949 5.082 2.612 8.173-6.908-5.041-6.95 5.041 2.61-8.173-6.95-5.082h8.597zM210.02 277.845l2.651 8.175h8.594l-6.949 5.082 2.612 8.173-6.908-5.02-6.95 5.02 2.61-8.173-6.95-5.082h8.597zM210.02 314.038l2.651 8.194h8.594l-6.949 5.061 2.612 8.196-6.908-5.061-6.95 5.061 2.61-8.196-6.95-5.061h8.597zM210.02 350.25l2.651 8.175h8.594l-6.949 5.062 2.612 8.175-6.908-5.082-6.95 5.082 2.61-8.175-6.95-5.062h8.597zM235.485 222.571l2.692 8.215h8.597l-6.949 5.061 2.69 8.196-7.03-5.061-6.908 5.061 2.612-8.196-6.95-5.061h8.595zM235.485 258.785l2.692 8.174h8.597L239.825 272l2.69 8.234-7.03-5.079-6.908 5.079 2.612-8.234-6.95-5.041h8.595zM235.485 294.977l2.692 8.175h8.597l-6.949 5.062 2.69 8.214-7.03-5.082-6.908 5.082 2.612-8.214-6.95-5.062h8.595zM235.485 331.15l2.692 8.214h8.597l-6.949 5.061 2.69 8.176-7.03-5.041-6.908 5.041 2.612-8.176-6.95-5.061h8.595zM235.485 367.343l2.692 8.235h8.597l-6.949 5.02 2.69 8.196-7.03-5.061-6.908 5.061 2.612-8.196-6.95-5.02h8.595zM260.713 241.633l2.651 8.214h8.677l-6.991 5.082 2.653 8.173-6.99-5.041-6.95 5.041 2.692-8.173-6.99-5.082h8.638zM260.713 277.845l2.651 8.175h8.677l-6.991 5.082 2.653 8.173-6.99-5.02-6.95 5.02 2.692-8.173-6.99-5.082h8.638zM260.713 314.038l2.651 8.194h8.677l-6.991 5.061 2.653 8.196-6.99-5.061-6.95 5.061 2.692-8.196-6.99-5.061h8.638zM260.713 350.25l2.651 8.175h8.677l-6.991 5.062 2.653 8.175-6.99-5.082-6.95 5.082 2.692-8.175-6.99-5.062h8.638zM286.261 222.571l2.692 8.215h8.595l-6.95 5.061 2.612 8.196-6.949-5.061-6.909 5.061 2.61-8.196-6.949-5.061h8.596zM286.261 258.785l2.692 8.174h8.595l-6.95 5.041 2.612 8.234-6.949-5.079-6.909 5.079 2.61-8.234-6.949-5.041h8.596zM286.261 294.977l2.692 8.175h8.595l-6.95 5.062 2.612 8.214-6.949-5.082-6.909 5.082 2.61-8.214-6.949-5.062h8.596zM286.261 331.15l2.692 8.214h8.595l-6.95 5.061 2.612 8.176-6.949-5.041-6.909 5.041 2.61-8.176-6.949-5.061h8.596zM286.261 367.343l2.692 8.235h8.595l-6.95 5.02 2.612 8.196-6.949-5.061-6.909 5.061 2.61-8.196-6.949-5.02h8.596zM311.488 241.633l2.61 8.214h8.636l-6.909 5.082 2.571 8.173-6.908-5.041-7.03 5.041 2.69-8.173-6.908-5.082h8.556zM311.488 277.845l2.61 8.175h8.636l-6.909 5.082 2.571 8.173-6.908-5.02-7.03 5.02 2.69-8.173-6.908-5.082h8.556zM311.488 314.038l2.61 8.194h8.636l-6.909 5.061 2.571 8.196-6.908-5.061-7.03 5.061 2.69-8.196-6.908-5.061h8.556zM311.488 350.25l2.61 8.175h8.636l-6.909 5.062 2.571 8.175-6.908-5.082-7.03 5.082 2.69-8.175-6.908-5.062h8.556zM336.954 222.571l2.733 8.215h8.556l-6.95 5.061 2.69 8.196-7.029-5.061-6.909 5.061 2.612-8.196-6.949-5.061h8.595zM336.954 258.785l2.733 8.174h8.556l-6.95 5.041 2.69 8.234-7.029-5.079-6.909 5.079 2.612-8.234-6.949-5.041h8.595zM336.954 294.977l2.733 8.175h8.556l-6.95 5.062 2.69 8.214-7.029-5.082-6.909 5.082 2.612-8.214-6.949-5.062h8.595zM336.954 331.15l2.733 8.214h8.556l-6.95 5.061 2.69 8.176-7.029-5.041-6.909 5.041 2.612-8.176-6.949-5.061h8.595zM336.954 367.343l2.733 8.235h8.556l-6.95 5.02 2.69 8.196-7.029-5.061-6.909 5.061 2.612-8.196-6.949-5.02h8.595z" clip-path="url(#a)" fill="#FFF5F5" opacity="1" data-original="#fff5f5"></path></g></g></svg>